<svg width="504" height="180" viewBox="0 0 504 180" fill="none" xmlns="http://www.w3.org/2000/svg">
<g clip-path="url(#clip0)">
<g filter="url(#filter0_d)">
<mask id="path-1-inside-1" fill="white">
<path fill-rule="evenodd" clip-rule="evenodd" d="M228.292 170.236C216.142 170.28 206.257 160.466 206.213 148.315L206.11 119.487C206.066 107.336 215.88 97.4513 228.03 97.4077L453 96.5996C465.15 96.556 475.035 106.37 475.079 118.52L475.182 147.349C475.226 159.5 465.412 169.385 453.262 169.428L228.292 170.236ZM223.979 140.458C227.407 140.446 230.176 137.657 230.163 134.229C230.151 130.801 227.362 128.032 223.934 128.044C220.506 128.056 217.737 130.845 217.749 134.273C217.762 137.701 220.551 140.47 223.979 140.458Z"/>
</mask>
<path fill-rule="evenodd" clip-rule="evenodd" d="M228.292 170.236C216.142 170.28 206.257 160.466 206.213 148.315L206.11 119.487C206.066 107.336 215.88 97.4513 228.03 97.4077L453 96.5996C465.15 96.556 475.035 106.37 475.079 118.52L475.182 147.349C475.226 159.5 465.412 169.385 453.262 169.428L228.292 170.236ZM223.979 140.458C227.407 140.446 230.176 137.657 230.163 134.229C230.151 130.801 227.362 128.032 223.934 128.044C220.506 128.056 217.737 130.845 217.749 134.273C217.762 137.701 220.551 140.47 223.979 140.458Z" fill="#93156F"/>
<path d="M475.079 118.52L476.079 118.517L475.079 118.52ZM475.182 147.349L474.182 147.353L475.182 147.349ZM205.213 148.319C205.259 161.022 215.593 171.282 228.296 171.236L228.288 169.236C216.691 169.278 207.255 159.91 207.213 148.312L205.213 148.319ZM205.11 119.49L205.213 148.319L207.213 148.312L207.11 119.483L205.11 119.49ZM228.027 96.4077C215.324 96.4533 205.064 106.788 205.11 119.49L207.11 119.483C207.068 107.885 216.436 98.4494 228.034 98.4077L228.027 96.4077ZM452.996 95.5997L228.027 96.4077L228.034 98.4077L453.004 97.5996L452.996 95.5997ZM476.079 118.517C476.033 105.814 465.699 95.554 452.996 95.5997L453.004 97.5996C464.602 97.558 474.037 106.926 474.079 118.524L476.079 118.517ZM476.182 147.346L476.079 118.517L474.079 118.524L474.182 147.353L476.182 147.346ZM453.265 170.428C465.968 170.383 476.228 160.048 476.182 147.346L474.182 147.353C474.224 158.951 464.856 168.387 453.258 168.428L453.265 170.428ZM228.296 171.236L453.265 170.428L453.258 168.428L228.288 169.236L228.296 171.236ZM229.163 134.232C229.174 137.108 226.851 139.448 223.975 139.458L223.982 141.458C227.962 141.444 231.178 138.205 231.163 134.225L229.163 134.232ZM223.938 129.044C226.813 129.034 229.153 131.356 229.163 134.232L231.163 134.225C231.149 130.245 227.911 127.03 223.93 127.044L223.938 129.044ZM218.749 134.27C218.739 131.394 221.062 129.054 223.938 129.044L223.93 127.044C219.95 127.058 216.735 130.297 216.749 134.277L218.749 134.27ZM223.975 139.458C221.099 139.468 218.76 137.145 218.749 134.27L216.749 134.277C216.764 138.257 220.002 141.472 223.982 141.458L223.975 139.458Z" fill="white" mask="url(#path-1-inside-1)"/>
<path d="M279.81 113.881L279.826 118.321L268.426 118.362L268.56 155.742L263.1 155.761L262.966 118.382L251.506 118.423L251.49 113.983L279.81 113.881ZM326.668 146.233L308.428 146.299L305.101 155.611L299.341 155.631L314.312 113.997L320.612 113.975L335.821 155.5L330.061 155.521L326.668 146.233ZM325.092 141.799L317.456 120.706L309.972 141.853L325.092 141.799ZM389.284 125.608C388.115 123.172 386.428 121.298 384.223 119.986C382.019 118.634 379.456 117.963 376.536 117.974C373.616 117.984 370.979 118.674 368.624 120.042C366.308 121.37 364.475 123.297 363.124 125.822C361.813 128.307 361.163 131.189 361.175 134.469C361.187 137.749 361.857 140.627 363.186 143.102C364.555 145.577 366.402 147.49 368.727 148.842C371.092 150.153 373.734 150.804 376.654 150.794C380.734 150.779 384.09 149.547 386.721 147.097C389.352 144.648 390.88 141.342 391.305 137.181L374.625 137.241L374.609 132.801L397.109 132.72L397.124 136.92C396.817 140.361 395.748 143.525 393.918 146.411C392.089 149.258 389.677 151.527 386.683 153.218C383.689 154.868 380.352 155.7 376.672 155.713C372.792 155.727 369.249 154.84 366.042 153.052C362.835 151.223 360.286 148.692 358.395 145.459C356.543 142.226 355.61 138.569 355.595 134.489C355.581 130.409 356.488 126.746 358.316 123.499C360.184 120.212 362.715 117.663 365.908 115.852C369.102 114 372.638 113.068 376.518 113.054C380.958 113.038 384.882 114.124 388.29 116.311C391.738 118.499 394.249 121.59 395.824 125.584L389.284 125.608ZM432.971 155.571C430.211 155.581 427.729 155.11 425.526 154.158C423.362 153.166 421.657 151.812 420.411 150.096C419.165 148.341 418.517 146.323 418.469 144.043L424.289 144.022C424.496 145.982 425.302 147.639 426.707 148.994C428.152 150.309 430.234 150.961 432.954 150.951C435.554 150.942 437.592 150.295 439.067 149.009C440.582 147.684 441.336 146.001 441.329 143.961C441.323 142.361 440.879 141.063 439.995 140.066C439.112 139.069 438.009 138.313 436.687 137.798C435.365 137.283 433.583 136.729 431.341 136.137C428.578 135.427 426.356 134.715 424.673 134.001C423.031 133.287 421.607 132.172 420.401 130.656C419.236 129.1 418.648 127.023 418.639 124.423C418.631 122.143 419.203 120.12 420.357 118.356C421.511 116.592 423.126 115.226 425.202 114.259C427.319 113.291 429.737 112.803 432.457 112.793C436.377 112.779 439.581 113.747 442.068 115.698C444.595 117.649 446.024 120.244 446.356 123.483L440.356 123.505C440.15 121.905 439.305 120.508 437.821 119.314C436.336 118.079 434.374 117.466 431.934 117.475C429.654 117.483 427.796 118.09 426.36 119.295C424.925 120.46 424.21 122.103 424.218 124.223C424.224 125.742 424.648 126.981 425.491 127.938C426.375 128.895 427.438 129.631 428.679 130.147C429.961 130.622 431.743 131.176 434.025 131.807C436.788 132.557 439.011 133.309 440.694 134.063C442.376 134.777 443.82 135.912 445.026 137.468C446.231 138.984 446.839 141.061 446.848 143.701C446.856 145.741 446.322 147.663 445.249 149.467C444.175 151.271 442.581 152.737 440.465 153.864C438.349 154.992 435.851 155.561 432.971 155.571Z" fill="white"/>
<path d="M279.81 113.881L280.81 113.878L280.807 112.878L279.807 112.881L279.81 113.881ZM279.826 118.321L279.83 119.321L280.83 119.317L280.826 118.318L279.826 118.321ZM268.426 118.362L268.423 117.362L267.423 117.366L267.426 118.366L268.426 118.362ZM268.56 155.742L268.564 156.742L269.564 156.738L269.56 155.738L268.56 155.742ZM263.1 155.761L262.101 155.765L262.104 156.765L263.104 156.761L263.1 155.761ZM262.966 118.382L263.966 118.378L263.963 117.378L262.963 117.382L262.966 118.382ZM251.506 118.423L250.506 118.426L250.51 119.426L251.51 119.423L251.506 118.423ZM251.49 113.983L251.487 112.983L250.487 112.986L250.49 113.986L251.49 113.983ZM278.81 113.885L278.826 118.325L280.826 118.318L280.81 113.878L278.81 113.885ZM279.823 117.321L268.423 117.362L268.43 119.362L279.83 119.321L279.823 117.321ZM267.426 118.366L267.56 155.745L269.56 155.738L269.426 118.358L267.426 118.366ZM268.557 154.742L263.097 154.761L263.104 156.761L268.564 156.742L268.557 154.742ZM264.1 155.758L263.966 118.378L261.966 118.385L262.101 155.765L264.1 155.758ZM262.963 117.382L251.503 117.423L251.51 119.423L262.97 119.382L262.963 117.382ZM252.506 118.419L252.49 113.979L250.49 113.986L250.506 118.426L252.506 118.419ZM251.494 114.983L279.814 114.881L279.807 112.881L251.487 112.983L251.494 114.983ZM326.668 146.233L327.607 145.89L327.366 145.231L326.664 145.233L326.668 146.233ZM308.428 146.299L308.424 145.299L307.722 145.301L307.486 145.962L308.428 146.299ZM305.101 155.611L305.105 156.611L305.807 156.608L306.043 155.947L305.101 155.611ZM299.341 155.631L298.4 155.293L297.917 156.636L299.345 156.631L299.341 155.631ZM314.312 113.997L314.308 112.997L313.608 113L313.371 113.659L314.312 113.997ZM320.612 113.975L321.551 113.631L321.309 112.972L320.608 112.975L320.612 113.975ZM335.821 155.5L335.825 156.5L337.25 156.495L336.76 155.156L335.821 155.5ZM330.061 155.521L329.122 155.864L329.363 156.523L330.065 156.521L330.061 155.521ZM325.092 141.799L325.095 142.799L326.515 142.794L326.032 141.458L325.092 141.799ZM317.456 120.706L318.396 120.366L317.445 117.739L316.513 120.372L317.456 120.706ZM309.972 141.853L309.029 141.519L308.555 142.858L309.975 142.853L309.972 141.853ZM326.664 145.233L308.424 145.299L308.431 147.299L326.671 147.233L326.664 145.233ZM307.486 145.962L304.159 155.274L306.043 155.947L309.369 146.635L307.486 145.962ZM305.098 154.611L299.338 154.631L299.345 156.631L305.105 156.611L305.098 154.611ZM300.282 155.97L315.253 114.336L313.371 113.659L298.4 155.293L300.282 155.97ZM314.315 114.997L320.615 114.975L320.608 112.975L314.308 112.997L314.315 114.997ZM319.673 114.318L334.882 155.844L336.76 155.156L321.551 113.631L319.673 114.318ZM335.817 154.5L330.057 154.521L330.065 156.521L335.825 156.5L335.817 154.5ZM331 155.178L327.607 145.89L325.728 146.576L329.122 155.864L331 155.178ZM326.032 141.458L318.396 120.366L316.516 121.046L324.151 142.139L326.032 141.458ZM316.513 120.372L309.029 141.519L310.914 142.187L318.399 121.04L316.513 120.372ZM309.975 142.853L325.095 142.799L325.088 140.799L309.968 140.853L309.975 142.853ZM389.284 125.608L388.382 126.041L388.655 126.61L389.287 126.608L389.284 125.608ZM384.223 119.986L383.701 120.839L383.712 120.845L384.223 119.986ZM368.624 120.042L369.121 120.91L369.126 120.907L368.624 120.042ZM363.124 125.822L362.242 125.35L362.24 125.355L363.124 125.822ZM363.186 143.102L362.305 143.575L362.311 143.586L363.186 143.102ZM368.727 148.842L368.224 149.706L368.233 149.712L368.242 149.716L368.727 148.842ZM386.721 147.097L387.402 147.829L387.402 147.829L386.721 147.097ZM391.305 137.181L392.3 137.282L392.413 136.177L391.302 136.181L391.305 137.181ZM374.625 137.241L373.625 137.244L373.629 138.244L374.629 138.241L374.625 137.241ZM374.609 132.801L374.606 131.801L373.606 131.804L373.609 132.804L374.609 132.801ZM397.109 132.72L398.109 132.716L398.106 131.716L397.106 131.72L397.109 132.72ZM397.124 136.92L398.12 137.009L398.124 136.963L398.124 136.916L397.124 136.92ZM393.918 146.411L394.76 146.952L394.763 146.947L393.918 146.411ZM386.683 153.218L387.166 154.093L387.175 154.088L386.683 153.218ZM366.042 153.052L365.547 153.92L365.555 153.925L366.042 153.052ZM358.395 145.459L357.527 145.956L357.532 145.964L358.395 145.459ZM358.316 123.499L357.446 123.005L357.445 123.009L358.316 123.499ZM365.908 115.852L366.402 116.722L366.41 116.717L365.908 115.852ZM388.29 116.311L387.75 117.153L387.754 117.156L388.29 116.311ZM395.824 125.585L395.827 126.584L397.291 126.579L396.754 125.218L395.824 125.585ZM390.185 125.175C388.936 122.572 387.118 120.545 384.735 119.127L383.712 120.845C385.738 122.051 387.294 123.772 388.382 126.041L390.185 125.175ZM384.746 119.134C382.363 117.672 379.614 116.963 376.533 116.974L376.54 118.974C379.299 118.964 381.674 119.596 383.701 120.839L384.746 119.134ZM376.533 116.974C373.45 116.985 370.639 117.715 368.121 119.178L369.126 120.907C371.319 119.633 373.782 118.984 376.54 118.974L376.533 116.974ZM368.126 119.175C365.636 120.603 363.675 122.673 362.243 125.35L364.006 126.294C365.275 123.922 366.98 122.138 369.121 120.91L368.126 119.175ZM362.24 125.355C360.84 128.007 360.163 131.056 360.175 134.473L362.175 134.465C362.164 131.322 362.786 128.606 364.009 126.289L362.24 125.355ZM360.175 134.473C360.188 137.889 360.887 140.933 362.305 143.575L364.067 142.629C362.828 140.32 362.187 137.609 362.175 134.465L360.175 134.473ZM362.311 143.586C363.763 146.211 365.735 148.259 368.224 149.706L369.23 147.977C367.069 146.721 365.348 144.943 364.061 142.618L362.311 143.586ZM368.242 149.716C370.768 151.117 373.581 151.805 376.658 151.794L376.65 149.794C373.887 149.803 371.415 149.19 369.212 147.967L368.242 149.716ZM376.658 151.794C380.953 151.778 384.562 150.474 387.402 147.829L386.039 146.365C383.617 148.62 380.515 149.78 376.65 149.794L376.658 151.794ZM387.402 147.829C390.239 145.188 391.855 141.643 392.3 137.282L390.31 137.079C389.906 141.041 388.465 144.108 386.039 146.365L387.402 147.829ZM391.302 136.181L374.622 136.241L374.629 138.241L391.309 138.181L391.302 136.181ZM375.625 137.237L375.609 132.797L373.609 132.804L373.625 137.244L375.625 137.237ZM374.613 133.801L397.113 133.72L397.106 131.72L374.606 131.801L374.613 133.801ZM396.109 132.724L396.124 136.923L398.124 136.916L398.109 132.716L396.109 132.724ZM396.128 136.831C395.835 140.115 394.817 143.126 393.074 145.876L394.763 146.947C396.679 143.924 397.799 140.607 398.12 137.009L396.128 136.831ZM393.077 145.871C391.337 148.578 389.046 150.735 386.191 152.347L387.175 154.088C390.308 152.319 392.84 149.938 394.76 146.952L393.077 145.871ZM386.2 152.342C383.364 153.905 380.194 154.701 376.668 154.713L376.675 156.713C380.51 156.7 384.014 155.831 387.166 154.093L386.2 152.342ZM376.668 154.713C372.95 154.727 369.577 153.878 366.529 152.178L365.555 153.925C368.92 155.802 372.634 156.728 376.675 156.713L376.668 154.713ZM366.537 152.183C363.486 150.443 361.062 148.038 359.258 144.954L357.532 145.964C359.51 149.346 362.185 152.004 365.547 153.92L366.537 152.183ZM359.263 144.962C357.505 141.893 356.609 138.409 356.595 134.485L354.595 134.493C354.611 138.729 355.581 142.558 357.527 145.956L359.263 144.962ZM356.595 134.485C356.581 130.562 357.452 127.072 359.187 123.99L357.445 123.009C355.523 126.42 354.58 130.256 354.595 134.493L356.595 134.485ZM359.185 123.993C360.967 120.859 363.37 118.441 366.402 116.722L365.415 114.982C362.06 116.885 359.401 119.566 357.446 123.005L359.185 123.993ZM366.41 116.717C369.444 114.958 372.808 114.067 376.522 114.054L376.515 112.054C372.469 112.068 368.759 113.043 365.407 114.987L366.41 116.717ZM376.522 114.054C380.789 114.038 384.52 115.079 387.75 117.153L388.83 115.47C385.245 113.168 381.128 112.037 376.515 112.054L376.522 114.054ZM387.754 117.156C391.014 119.224 393.392 122.143 394.893 125.951L396.754 125.218C395.106 121.037 392.462 117.774 388.826 115.467L387.754 117.156ZM395.82 124.585L389.28 124.608L389.287 126.608L395.827 126.584L395.82 124.585ZM425.526 154.158L425.109 155.067L425.119 155.072L425.129 155.076L425.526 154.158ZM420.411 150.096L419.596 150.675L419.602 150.684L420.411 150.096ZM418.469 144.043L418.466 143.043L417.448 143.047L417.469 144.064L418.469 144.043ZM424.289 144.022L425.284 143.917L425.189 143.019L424.286 143.022L424.289 144.022ZM426.707 148.994L426.013 149.714L426.023 149.724L426.034 149.733L426.707 148.994ZM439.067 149.009L439.724 149.763L439.726 149.762L439.067 149.009ZM439.995 140.066L439.247 140.729L439.995 140.066ZM436.687 137.798L436.324 138.73L436.687 137.798ZM431.341 136.137L431.596 135.17L431.59 135.168L431.341 136.137ZM424.673 134.001L424.275 134.918L424.283 134.921L424.673 134.001ZM420.401 130.656L419.601 131.256L419.61 131.267L419.619 131.279L420.401 130.656ZM420.357 118.356L421.194 118.904L420.357 118.356ZM425.202 114.259L424.787 113.349L424.78 113.352L425.202 114.259ZM442.068 115.698L441.45 116.485L441.456 116.49L442.068 115.698ZM446.356 123.483L446.359 124.483L447.463 124.479L447.35 123.381L446.356 123.483ZM440.356 123.505L439.364 123.632L439.476 124.508L440.359 124.505L440.356 123.505ZM437.821 119.314L437.181 120.082L437.187 120.088L437.194 120.093L437.821 119.314ZM426.36 119.295L426.991 120.071L426.997 120.066L427.003 120.061L426.36 119.295ZM425.491 127.938L424.741 128.599L424.749 128.608L424.757 128.616L425.491 127.938ZM428.679 130.147L428.296 131.07L428.314 131.077L428.332 131.084L428.679 130.147ZM434.025 131.807L433.759 132.771L433.763 132.772L434.025 131.807ZM440.694 134.063L440.285 134.976L440.294 134.98L440.303 134.984L440.694 134.063ZM445.026 137.468L444.235 138.08L444.243 138.09L445.026 137.468ZM445.249 149.467L446.108 149.979L445.249 149.467ZM440.465 153.864L439.994 152.982L440.465 153.864ZM432.967 154.571C430.324 154.581 427.982 154.13 425.922 153.24L425.129 155.076C427.476 156.09 430.097 156.582 432.974 156.571L432.967 154.571ZM425.942 153.249C423.916 152.319 422.353 151.069 421.22 149.509L419.602 150.684C420.961 152.555 422.809 154.012 425.109 155.067L425.942 153.249ZM421.226 149.517C420.103 147.935 419.513 146.114 419.469 144.022L417.469 144.064C417.522 146.532 418.226 148.747 419.596 150.675L421.226 149.517ZM418.473 145.043L424.293 145.022L424.286 143.022L418.466 143.043L418.473 145.043ZM423.295 144.127C423.526 146.318 424.437 148.194 426.013 149.714L427.401 148.274C426.167 147.084 425.466 145.645 425.284 143.917L423.295 144.127ZM426.034 149.733C427.726 151.273 430.086 151.962 432.958 151.951L432.951 149.951C430.382 149.961 428.578 149.344 427.38 148.254L426.034 149.733ZM432.958 151.951C435.718 151.941 438.015 151.252 439.724 149.763L438.41 148.255C437.168 149.337 435.39 149.943 432.951 149.951L432.958 151.951ZM439.726 149.762C441.462 148.243 442.337 146.283 442.329 143.958L440.329 143.965C440.335 145.72 439.703 147.125 438.409 148.257L439.726 149.762ZM442.329 143.958C442.323 142.166 441.819 140.617 440.743 139.403L439.247 140.729C439.938 141.509 440.324 142.557 440.329 143.965L442.329 143.958ZM440.743 139.403C439.748 138.279 438.51 137.435 437.05 136.866L436.324 138.73C437.508 139.191 438.475 139.859 439.247 140.729L440.743 139.403ZM437.05 136.866C435.678 136.331 433.855 135.767 431.596 135.17L431.086 137.104C433.311 137.691 435.052 138.234 436.324 138.73L437.05 136.866ZM431.59 135.168C428.852 134.465 426.682 133.767 425.064 133.08L424.283 134.921C426.029 135.663 428.305 136.389 431.092 137.106L431.59 135.168ZM425.072 133.084C423.592 132.44 422.296 131.432 421.184 130.034L419.619 131.279C420.917 132.912 422.47 134.133 424.275 134.918L425.072 133.084ZM421.202 130.057C420.202 128.723 419.648 126.876 419.639 124.419L417.639 124.426C417.649 127.169 418.269 129.478 419.601 131.256L421.202 130.057ZM419.639 124.419C419.631 122.318 420.156 120.491 421.194 118.904L419.52 117.809C418.251 119.75 417.63 121.967 417.639 124.426L419.639 124.419ZM421.194 118.904C422.237 117.309 423.702 116.061 425.625 115.165L424.78 113.352C422.55 114.392 420.785 115.875 419.52 117.809L421.194 118.904ZM425.618 115.168C427.585 114.269 429.859 113.802 432.461 113.793L432.454 111.793C429.615 111.803 427.053 112.314 424.787 113.349L425.618 115.168ZM432.461 113.793C436.211 113.779 439.18 114.704 441.45 116.485L442.685 114.912C439.982 112.791 436.543 111.778 432.454 111.793L432.461 113.793ZM441.456 116.49C443.762 118.27 445.056 120.613 445.361 123.585L447.35 123.381C446.991 119.876 445.428 117.029 442.679 114.907L441.456 116.49ZM446.352 122.483L440.352 122.505L440.359 124.505L446.359 124.483L446.352 122.483ZM441.347 123.377C441.103 121.476 440.094 119.86 438.448 118.535L437.194 120.093C438.516 121.157 439.197 122.335 439.364 123.632L441.347 123.377ZM438.46 118.545C436.752 117.124 434.542 116.465 431.93 116.475L431.938 118.475C434.206 118.467 435.921 119.034 437.181 120.082L438.46 118.545ZM431.93 116.475C429.469 116.484 427.369 117.143 425.717 118.529L427.003 120.061C428.223 119.037 429.839 118.482 431.938 118.475L431.93 116.475ZM425.73 118.518C424.023 119.903 423.21 121.853 423.218 124.226L425.218 124.219C425.211 122.352 425.826 121.016 426.991 120.071L425.73 118.518ZM423.218 124.226C423.224 125.94 423.708 127.427 424.741 128.599L426.242 127.277C425.588 126.535 425.223 125.545 425.218 124.219L423.218 124.226ZM424.757 128.616C425.741 129.683 426.925 130.501 428.296 131.07L429.063 129.223C427.95 128.761 427.008 128.107 426.226 127.26L424.757 128.616ZM428.332 131.084C429.652 131.574 431.466 132.136 433.759 132.771L434.292 130.844C432.021 130.215 430.27 129.67 429.027 129.209L428.332 131.084ZM433.763 132.772C436.5 133.515 438.668 134.252 440.285 134.976L441.102 133.151C439.354 132.367 437.076 131.599 434.287 130.842L433.763 132.772ZM440.303 134.984C441.816 135.626 443.126 136.649 444.235 138.08L445.816 136.855C444.514 135.175 442.936 133.929 441.084 133.143L440.303 134.984ZM444.243 138.09C445.265 139.376 445.839 141.209 445.848 143.705L447.848 143.698C447.838 140.914 447.197 138.591 445.808 136.845L444.243 138.09ZM445.848 143.705C445.855 145.558 445.373 147.303 444.39 148.956L446.108 149.979C447.272 148.024 447.856 145.924 447.848 143.698L445.848 143.705ZM444.39 148.956C443.422 150.581 441.973 151.928 439.994 152.982L440.935 154.747C443.189 153.546 444.929 151.961 446.108 149.979L444.39 148.956ZM439.994 152.982C438.048 154.019 435.717 154.561 432.967 154.571L432.974 156.571C435.985 156.56 438.649 155.965 440.935 154.747L439.994 152.982Z" fill="white"/>
</g>
<path d="M229.615 42.616C228.127 39.888 226.081 37.811 223.477 36.385C220.873 34.959 217.835 34.246 214.363 34.246C210.519 34.246 207.109 35.114 204.133 36.85C201.157 38.586 198.832 41.066 197.158 44.29C195.484 47.514 194.647 51.234 194.647 55.45C194.647 59.79 195.484 63.572 197.158 66.796C198.894 70.02 201.281 72.5 204.319 74.236C207.357 75.972 210.891 76.84 214.921 76.84C219.881 76.84 223.942 75.538 227.104 72.934C230.266 70.268 232.343 66.579 233.335 61.867H211.015V51.916H246.169V63.262C245.301 67.788 243.441 71.973 240.589 75.817C237.737 79.661 234.048 82.761 229.522 85.117C225.058 87.411 220.036 88.558 214.456 88.558C208.194 88.558 202.521 87.163 197.437 84.373C192.415 81.521 188.447 77.584 185.533 72.562C182.681 67.54 181.255 61.836 181.255 55.45C181.255 49.064 182.681 43.36 185.533 38.338C188.447 33.254 192.415 29.317 197.437 26.527C202.521 23.675 208.163 22.249 214.363 22.249C221.679 22.249 228.034 24.047 233.428 27.643C238.822 31.177 242.542 36.168 244.588 42.616H229.615ZM262.405 30.34C260.111 30.34 258.189 29.627 256.639 28.201C255.151 26.713 254.407 24.884 254.407 22.714C254.407 20.544 255.151 18.746 256.639 17.32C258.189 15.832 260.111 15.088 262.405 15.088C264.699 15.088 266.59 15.832 268.078 17.32C269.628 18.746 270.403 20.544 270.403 22.714C270.403 24.884 269.628 26.713 268.078 28.201C266.59 29.627 264.699 30.34 262.405 30.34ZM268.822 36.478V88H255.802V36.478H268.822ZM296.845 47.173V72.097C296.845 73.833 297.248 75.104 298.054 75.91C298.922 76.654 300.348 77.026 302.332 77.026H308.377V88H300.193C289.219 88 283.732 82.668 283.732 72.004V47.173H277.594V36.478H283.732V23.737H296.845V36.478H308.377V47.173H296.845ZM371.588 23.086V88H358.568V60.379H330.761V88H317.741V23.086H330.761V49.777H358.568V23.086H371.588ZM433.042 36.478V88H419.929V81.49C418.255 83.722 416.054 85.489 413.326 86.791C410.66 88.031 407.746 88.651 404.584 88.651C400.554 88.651 396.989 87.814 393.889 86.14C390.789 84.404 388.34 81.893 386.542 78.607C384.806 75.259 383.938 71.291 383.938 66.703V36.478H396.958V64.843C396.958 68.935 397.981 72.097 400.027 74.329C402.073 76.499 404.863 77.584 408.397 77.584C411.993 77.584 414.814 76.499 416.86 74.329C418.906 72.097 419.929 68.935 419.929 64.843V36.478H433.042ZM458.909 44.011C460.583 41.531 462.877 39.516 465.791 37.966C468.767 36.416 472.146 35.641 475.928 35.641C480.33 35.641 484.298 36.726 487.832 38.896C491.428 41.066 494.249 44.166 496.295 48.196C498.403 52.164 499.457 56.783 499.457 62.053C499.457 67.323 498.403 72.004 496.295 76.096C494.249 80.126 491.428 83.257 487.832 85.489C484.298 87.721 480.33 88.837 475.928 88.837C472.084 88.837 468.705 88.093 465.791 86.605C462.939 85.055 460.645 83.071 458.909 80.653V88H445.889V19.18H458.909V44.011ZM486.158 62.053C486.158 58.953 485.507 56.287 484.205 54.055C482.965 51.761 481.291 50.025 479.183 48.847C477.137 47.669 474.905 47.08 472.487 47.08C470.131 47.08 467.899 47.7 465.791 48.94C463.745 50.118 462.071 51.854 460.769 54.148C459.529 56.442 458.909 59.139 458.909 62.239C458.909 65.339 459.529 68.036 460.769 70.33C462.071 72.624 463.745 74.391 465.791 75.631C467.899 76.809 470.131 77.398 472.487 77.398C474.905 77.398 477.137 76.778 479.183 75.538C481.291 74.298 482.965 72.531 484.205 70.237C485.507 67.943 486.158 65.215 486.158 62.053Z" fill="black"/>
<path d="M166.261 46.7196C158.437 33.3133 147.824 22.6996 134.419 14.8759C121.011 7.05189 106.375 3.14087 90.4986 3.14087C74.6243 3.14087 59.983 7.05309 46.5787 14.8759C33.1725 22.6992 22.5595 33.3133 14.7351 46.7196C6.91182 60.1254 3 74.7647 3 90.6371C3 109.703 8.56266 126.848 19.6908 142.076C30.8177 157.305 45.192 167.843 62.8126 173.691C64.8637 174.072 66.382 173.804 67.3693 172.895C68.3569 171.984 68.8501 170.844 68.8501 169.478C68.8501 169.25 68.8306 167.2 68.7926 163.326C68.7535 159.452 68.7352 156.072 68.7352 153.188L66.1147 153.641C64.4439 153.947 62.3361 154.077 59.7914 154.04C57.2479 154.005 54.6075 153.738 51.8736 153.243C49.1386 152.751 46.5947 151.612 44.2399 149.827C41.8864 148.042 40.2156 145.706 39.2279 142.822L38.0887 140.2C37.3293 138.454 36.1338 136.515 34.5005 134.39C32.8672 132.263 31.2155 130.821 29.5448 130.061L28.7471 129.49C28.2155 129.111 27.7223 128.653 27.2662 128.122C26.8105 127.591 26.4693 127.059 26.2415 126.527C26.0132 125.994 26.2024 125.557 26.8109 125.215C27.4194 124.872 28.5192 124.705 30.115 124.705L32.3927 125.046C33.9119 125.35 35.791 126.26 38.0324 127.78C40.2726 129.298 42.1142 131.273 43.5576 133.702C45.3054 136.817 47.4111 139.191 49.8808 140.824C52.3485 142.457 54.8365 143.272 57.3425 143.272C59.8485 143.272 62.0129 143.083 63.8365 142.705C65.6582 142.325 67.3673 141.754 68.963 140.995C69.6466 135.904 71.5077 131.993 74.5449 129.259C70.216 128.804 66.3242 128.119 62.8673 127.208C59.4123 126.296 55.8421 124.815 52.1589 122.762C48.4738 120.713 45.4167 118.167 42.9869 115.13C40.5567 112.092 38.5623 108.103 37.0065 103.167C35.4498 98.2297 34.6713 92.5337 34.6713 86.078C34.6713 76.8861 37.6721 69.064 43.6725 62.6075C40.8616 55.6969 41.127 47.9498 44.4694 39.3672C46.6721 38.6829 49.9387 39.1964 54.2675 40.9047C58.5971 42.6138 61.7671 44.0779 63.7807 45.2918C65.7942 46.5053 67.4076 47.5336 68.6231 48.3676C75.6881 46.3936 82.979 45.4063 90.4978 45.4063C98.0166 45.4063 105.309 46.3936 112.375 48.3676L116.704 45.6346C119.664 43.811 123.16 42.1398 127.183 40.6206C131.209 39.1022 134.287 38.6841 136.415 39.3684C139.832 47.9514 140.136 55.6981 137.324 62.6087C143.324 69.0652 146.326 76.8892 146.326 86.0792C146.326 92.5349 145.545 98.2488 143.991 103.225C142.434 108.201 140.423 112.186 137.955 115.187C135.485 118.189 132.408 120.714 128.725 122.764C125.041 124.815 121.47 126.295 118.015 127.207C114.558 128.12 110.666 128.805 106.337 129.261C110.286 132.677 112.26 138.071 112.26 145.438V169.475C112.26 170.84 112.735 171.98 113.685 172.891C114.635 173.801 116.134 174.069 118.185 173.688C135.808 167.84 150.182 157.302 161.309 142.073C172.434 126.845 177.999 109.7 177.999 90.6339C177.995 74.7635 174.081 60.1254 166.261 46.7196Z" fill="black"/>
</g>
<defs>
<filter id="filter0_d" x="202.109" y="96.5995" width="277.073" height="81.637" filterUnits="userSpaceOnUse" color-interpolation-filters="sRGB">
<feFlood flood-opacity="0" result="BackgroundImageFix"/>
<feColorMatrix in="SourceAlpha" type="matrix" values="0 0 0 0 0 0 0 0 0 0 0 0 0 0 0 0 0 0 127 0"/>
<feOffset dy="4"/>
<feGaussianBlur stdDeviation="2"/>
<feColorMatrix type="matrix" values="0 0 0 0 0 0 0 0 0 0 0 0 0 0 0 0 0 0 0.25 0"/>
<feBlend mode="normal" in2="BackgroundImageFix" result="effect1_dropShadow"/>
<feBlend mode="normal" in="SourceGraphic" in2="effect1_dropShadow" result="shape"/>
</filter>
<clipPath id="clip0">
<rect width="504" height="180" fill="white"/>
</clipPath>
</defs>
</svg>
